<svg xmlns="http://www.w3.org/2000/svg" fill="none" preserveAspectRatio="none" viewBox="0 0 292 210" color="#FFC046" class="sc-86d5ac7b-2 iiaouJ"><path fill="currentColor" d="M288.813 13.158c-.049-1.498-.081-2.996-.13-4.448-.081-3.043-.52-4.541-1.544-4.541-4.632.046-9.28.046-13.911.468-4.388.374-8.776 1.264-13.164 1.873-10.483 1.498-20.965 2.528-31.448 1.732-6.354-.468-11.808 5.642-18.163 4.378-6.939-1.358-13.846-3.23-20.77-4.87-5.476-1.31-11.277 3.512-16.754 2.248-5.135-1.17-10.271-2.2-15.423-3.184-6.452-1.217-13.393 1.03-19.861-.047-3.38-.561-6.777-.983-10.157-1.264-10.856-.89-21.729-1.872-32.585-2.434-15.13-.796-30.245-1.265-45.375-1.873C41.987.868 34.446.259 26.889.119c-2.86-.047-5.737.936-8.597 1.124-2.032.14-4.063-.047-6.11-.281-2-.188-3.999-.796-6.014-.89C3.145-.022 1.504 3.537.788 11.965-.17 23.108-.04 34.532.09 45.863c.146 13.953.309 27.905.504 41.858.21 15.451.552 30.855.65 46.306.113 17.652-.017 35.303 0 52.955 0 4.213-.212 8.381.569 12.548.666 3.558 1.511 5.29 2.844 5.337 4.875.234 9.767.234 14.642.656 6.956.608 13.896 1.451 20.852 2.247 15.731 1.873 31.48 2.763 47.227 1.639 12.14-.843 24.281-2.388 36.421-3.231 12.319-.889 24.637-1.404 36.956-1.873 14.221-.561 28.457-.936 42.678-1.451 14.025-.515 28.034-1.405 42.059-1.405 8.76 0 17.503 1.264 26.247 2.201 5.006.515 10.011 1.545 15.017 2.341 2.047.328 2.892-.936 3.461-6.695.488-4.87.927-9.927.959-14.936.146-18.12.146-36.287.114-54.406-.016-7.96-.455-15.92-.406-23.879.048-9.364.399-35.514.546-44.832.243-14.42.39-28.888.568-43.309.033-2.669-.455-4.027-1.365-4.26-.552-.141-1.137-.328-1.82-.516M144 197.938v-.422c-15.31 0-30.602.235-45.912-.046-22.606-.375-45.212-1.218-67.818-1.639-8.273-.141-16.545.327-24.817.515-.423 0-.829-.047-1.251-.141-.634-.093-.862-.936-.846-2.856.147-11.143.277-22.333.325-33.477.163-36.52.862-72.9 2.39-109.14.373-8.849 1.12-17.604 1.885-26.266.471-5.431 1.576-10.067 3.38-12.736 2.308-3.417 4.762-5.337 7.395-4.869 6.208 1.17 12.432 2.388 18.64 3.418 7.883 1.264 15.749 2.622 23.63 3.465 9.752 1.077 19.52 1.732 29.27 2.435 11.978.89 23.939 1.498 35.917 2.434 8.824.703 17.633 1.686 26.458 2.575.357.047 1.317-1.404 1.675-1.076.601.515 1.105-.047 1.706 0 6.371.655 12.726 1.123 19.096 1.685 10.336.983 21.012-4.448 31.349-3.184 9.426 1.17 17.951-4.19 27.394-2.926 7.459.983 14.935 1.826 22.411 2.153 9.962.375 19.941.235 29.903.188.91 0 1.219.796 1.219 3.324 0 3.184.114 6.368.195 9.552.325 12.407.738 41.647 1.047 54.101.179 7.351.552 14.749.39 22.053-.471 21.585-1.056 43.122-1.82 64.613-.244 7.117-1.089 14.14-1.788 21.07-.358 3.652-1.349 5.15-2.73 5.009-3.559-.374-7.135-.515-10.694-.655-9.654-.421-19.307-.702-28.977-1.264-12.189-.656-24.362-.796-36.55.328-9.865.936-19.73 1.404-29.595 1.685-10.937.328-21.907.094-32.877.094M39.89 5.831c0-.14-.016-.328-.016-.468h.602c6.858.374 13.7.749 20.558 1.077 13.977.655 27.97 1.123 41.946 1.966 9.231.562 18.478 1.498 27.709 2.388 4.291.422 8.565 1.077 12.856 1.732 4.046.61 8.566-2.107 12.612-1.357 3.95.749 7.882 1.685 11.962 2.575-.195.187-.26.28-.325.28-6.924-.514-14.319 2.389-21.243 1.78-7.232-.609-14.448-1.498-21.68-2.06-11.62-.89-23.256-1.592-34.876-2.388-6.225-.421-12.449-.75-18.69-1.358-6.468-.609-12.936-1.404-19.388-2.247-4.03-.515-8.029-1.264-12.026-1.92m-28.635-.843c.032.375.065.796.114 1.17-1.626 2.295-3.105 5.198-3.885 9.927-.747 4.448-1.446 9.13-1.836 13.906C3.99 50.03 3.682 70.585 3.096 91.045c-.13 4.776-.276 9.505-.406 14.281a2132 2132 0 0 1-.65-33.805c-.146-13.953-.325-27.905-.292-41.858.016-5.806.373-11.705.812-17.417.406-5.291 1.43-7.164 3.315-7.21 1.788-.095 3.592-.048 5.38-.048M22.956 200.56c28.75.702 57.5 1.404 85.013 2.107-27.53 4.307-56.28 2.528-85.013-2.107m266.855-54.5c.032 2.06.097 4.12.097 6.18-.032 6.883 0 13.766-.162 20.602-.195 7.725-.455 15.451-.894 23.082-.325 5.525-1.186 6.462-3.039 4.729 3.77-16.668 3.104-36.099 3.998-54.593M274.512 13.112c1.105-1.03 2.389.327 2.389-4.214h10.076c.065 1.638.113 2.856.178 4.214zm15.569 39.282h-.277l-.828-34.038c1.43-.516 1.446-.469 1.43 3.043-.016 2.294-.016 4.588-.049 6.883-.097 8.053-.179 16.106-.276 24.112m-37.184-40.032c.081-.093.097-.14.097-.14 6.046-.89 12.091-1.732 18.137-2.622-5.997 4.307-12.075 3.043-18.234 2.762"></path></svg>