<svg xmlns="http://www.w3.org/2000/svg" fill="none" preserveAspectRatio="none" viewBox="0 0 997 584" class="sc-91ad87b7-1 bQQktN"><g fill="#FFC046" clip-path="url(#latest-patch-note-border_svg__a)"><path fill-rule="evenodd" d="M696.132 13.438c-7.6-.386-14.846-.057-21.462 2.547-9.072 3.57-18.073 3.486-26.728 3.405-1.279-.012-2.551-.024-3.814-.024-11.231 0-22.342 1.977-33.627 4.312-2.032.42-4.072.852-6.12 1.287-9.252 1.961-18.654 3.955-28.139 4.997-.54.059-4.418.305-7.632.415-1.589.054-3.167.082-4.127.02a6 6 0 0 1-.812-.098 3.2 3.2 0 0 1-.636-.195l-.01-.004a2.6 2.6 0 0 1-1.395-1.439c-.567-1.468.368-2.525.658-2.793.325-.3.661-.455.787-.511.309-.139.648-.235.917-.303 2.091-.533 4.225-.924 6.256-1.296q1.11-.201 2.17-.405c2.711-.524 5.272-1.123 7.773-2.14 2.528-1.029 5.142-1.898 7.667-2.738 1.088-.362 2.159-.718 3.199-1.08q.358-.123.715-.25h-5.347c-13.744 0-27.489.553-41.287 1.109l-.039.001c-13.768.555-27.59 1.111-41.42 1.111-2.744 0-5.467-.02-8.172-.04-15.31-.111-30.068-.22-45.021 3.305-8.504 2.004-17.016 3.398-25.745 3.398h-.038l-.115.008q-.149.01-.376.033-.34.034-.766.082-.153.016-.32.035c-.783.085-1.786.19-2.6.2-.374.004-.917-.005-1.429-.127a3.05 3.05 0 0 1-1.213-.58 2.66 2.66 0 0 1-.977-2.418c.106-.818.555-1.356.754-1.575.244-.266.514-.477.738-.635.456-.322 1.05-.652 1.747-.997q.69-.343 1.394-.689H281a2.5 2.5 0 1 1 0-5h146.258c.139 0 .521-.009 1.059-.021.987-.024 2.499-.059 3.995-.074 1.07-.01 2.133-.01 2.79.027.164.009.36.023.547.049.087.012.239.036.41.083a2.555 2.555 0 0 1 1.194.7 2.514 2.514 0 0 1-.216 3.69c-.381.314-.775.442-.854.468l-.008.003a5 5 0 0 1-.679.162c-1.622.281-3.247.756-4.891 1.36 6.219-.447 12.42-1.56 18.735-3.05 15.586-3.672 31.019-3.555 46.314-3.438 2.679.02 5.354.041 8.025.041 13.725 0 27.46-.553 41.258-1.108h.011c13.778-.555 27.619-1.113 41.477-1.113h13.867l.136-.003c.109-.002.251-.005.409-.006.308-.003.714-.002 1.099.019h.011c.259.014.923.05 1.494.274.17.066.521.219.864.534a2.573 2.573 0 0 1 .13 3.674 3 3 0 0 1-.646.518c-3.68 2.222-7.443 3.698-11.092 4.964q-.537.186-1.064.365c3.862-.748 7.73-1.568 11.621-2.392 2.071-.439 4.147-.88 6.234-1.31 11.326-2.344 22.864-4.416 34.64-4.416 1.33 0 2.641.01 3.935.021 8.714.07 16.673.134 24.776-3.055 7.616-2.998 15.719-3.285 23.546-2.888 3.126.159 6.266.431 9.326.697q1.156.1 2.293.197c3.805.322 7.472.586 10.996.586a2.5 2.5 0 1 1 0 5c-3.75 0-7.597-.28-11.416-.603l-2.349-.202c-3.051-.265-6.076-.528-9.103-.681M753.514 560.506c-9.885-.388-19.465-.066-28.254 2.611-11.488 3.499-22.856 3.419-34.052 3.34-1.657-.011-3.311-.023-4.96-.023-14.653 0-29.121 1.996-43.714 4.332-2.639.422-5.284.856-7.935 1.291-11.953 1.961-24.028 3.942-36.216 4.978m155.131-16.529c3.814.15 7.742.413 11.678.676Zm11.678.676c6.046.404 12.11.81 17.808.81Zm.652-4.97c5.86.396 11.551.78 17.156.78a2.5 2.5 0 1 1 0 5m-17.156-5.78c-3.959-.267-7.995-.539-12.133-.702Zm-12.133-.702c-10.051-.395-20.304-.101-29.907 2.824Zm-29.907 2.824c-10.706 3.26-21.254 3.193-32.502 3.121Zm-32.502 3.121c-1.668-.01-3.352-.021-5.054-.021Zm-72.494 2.758-.73.198c-1.374.369-2.775.729-4.19 1.093-3.246.836-6.564 1.69-9.796 2.707-3.337 1.05-6.738 1.663-10.267 2.192q-1.407.208-2.858.412c-2.61.37-5.303.752-7.961 1.276a8 8 0 0 0-.998.253c-.117.04-.447.157-.78.395a2.6 2.6 0 0 0-.8.927 2.53 2.53 0 0 0-.01 2.278c.308.619.777.933.971 1.049.23.139.436.215.553.254.239.08.458.118.586.138.28.043.594.066.884.081 1.166.059 3.143.034 5.204-.021 4.148-.11 9.115-.355 9.767-.41m32.999-17.212.01-.005-.002.001zm-12.574 4.39h-7.126c-17.792 0-35.578.554-53.405 1.109l-.037.001c-17.801.555-35.641 1.111-53.486 1.111-3.529 0-7.036-.02-10.527-.04-19.779-.113-39.021-.223-58.502 3.33-10.941 1.996-21.833 3.372-32.978 3.372-.287 0-.927.054-1.856.133l-.37.031c-1.023.086-2.257.184-3.237.194-.462.004-1.032-.008-1.535-.101a3.3 3.3 0 0 1-1.158-.431 2.7 2.7 0 0 1-.911-.933 2.6 2.6 0 0 1-.318-1.75c.165-.986.826-1.553 1.005-1.705.281-.238.589-.425.849-.567.534-.292 1.251-.602 2.132-.939l1.553-.594H217a2.5 2.5 0 1 1 0-5h189c.174 0 .677-.009 1.383-.022 1.297-.023 3.277-.059 5.16-.073 1.389-.011 2.722-.01 3.522.025.2.008.411.02.6.041.089.009.225.026.375.058a2.7 2.7 0 0 1 1.114.518c.351.282 1.193 1.173.876 2.531-.233 1-.966 1.466-1.097 1.55l-.005.003c-.365.233-.726.323-.794.34l-.007.002c-.236.061-.497.1-.701.128-2.129.286-4.254.762-6.388 1.364 8.256-.438 16.463-1.575 24.789-3.094 19.98-3.644 39.748-3.528 59.515-3.412 3.47.021 6.941.041 10.412.041 17.767 0 35.542-.554 53.368-1.109 17.813-.555 35.678-1.112 53.56-1.112h17.849l.137-.002c.352-.005 1.268-.02 1.988.01.348.014 1.019.046 1.561.21.144.044.482.154.832.403.334.238 1.149.963 1.085 2.223-.055 1.092-.754 1.707-.947 1.867a3.1 3.1 0 0 1-.679.424c-4.668 2.18-9.449 3.633-14.133 4.891q-.812.218-1.614.428c5.313-.787 10.626-1.658 15.959-2.533 2.668-.438 5.342-.876 8.024-1.305 14.628-2.342 29.427-4.395 44.504-4.395" clip-rule="evenodd"></path><path d="M16.665 15.884a544 544 0 0 0-3.122 3.81c-.378.457-.714.966-1.093 1.43l-4.019 4.895a57 57 0 0 0-1.7 2.255c-.349.49-.694.99-1.051 1.471l-.274.362-.308.326a8 8 0 0 1-.657.628c-.24.201-.415.027-.44-.422a3.8 3.8 0 0 1 .191-1.279l.087-.248q.063-.111.138-.215c1.417-1.99 2.88-3.956 4.492-5.812.96-1.114 1.829-2.397 2.764-3.584 1.023-1.307 2.078-2.6 3.105-3.892l1.924-2.379c.973-1.205 1.97-2.392 2.91-3.602L20.7 8.21q.535-.687 1.102-1.375c.166-.201.316-.408.49-.605.67-.715.952-.866 1.33-.742q.131.027.253.087c.237.137.13.605-.265 1.2l-.877 1.293-.915 1.375-.47.66a10 10 0 0 1-.506.656l-1.031 1.292-3.113 3.86z"></path><path d="M16.818 14.728A298 298 0 0 0 13.64 18.8c-.378.499-.724 1.03-1.106 1.524-1.356 1.753-2.725 3.492-4.06 5.264-.59.782-1.153 1.6-1.697 2.414-.354.517-.67 1.06-1.053 1.568q-.566.76-1.206 1.448c-.27.283-.462.058-.508-.41a3.27 3.27 0 0 1 .387-1.824 8 8 0 0 1 .512-.819l.545-.795a66 66 0 0 1 1.11-1.573 64 64 0 0 1 2.35-3.062c.978-1.209 1.84-2.558 2.763-3.843 1.019-1.412 2.055-2.805 3.09-4.203l1.918-2.572c.97-1.299 1.968-2.58 2.912-3.892.724-1.025 1.36-2.09 2.05-3.147.155-.23.288-.45.459-.679.628-.81.927-.98 1.385-.854q.156.033.308.09c.303.153.257.674-.096 1.348a53 53 0 0 1-3.744 5.772c-1.015 1.403-2.034 2.814-3.09 4.19z"></path><path d="M17.449 13.768c-1.173 1.62-2.35 3.24-3.505 4.87-.42.597-.782 1.236-1.21 1.851l-2.266 3.125c-.77 1.028-1.543 2.056-2.295 3.097-.668.926-1.26 1.903-1.883 2.866-.387.625-.748 1.264-1.143 1.88q-.638.895-1.383 1.685c-.315.324-.559.074-.68-.496a4.3 4.3 0 0 1 .176-2.314 60.6 60.6 0 0 1 4.888-7.546c1.11-1.39 2.055-3.042 3.085-4.56 1.143-1.667 2.307-3.32 3.463-4.972l2.14-3.056c1.054-1.56 2.214-3.05 3.244-4.63.82-1.198 1.492-2.49 2.307-3.703.177-.264.345-.537.538-.791.76-.866 1.177-1.065 1.614-.945q.152.018.298.07c.278.134.181.694-.147 1.5-.996 2.453-2.42 4.754-3.828 7.087-1.03 1.745-2.224 3.37-3.363 5.042zM17.728 30.883c-.625.533-1.28 1.075-1.908 1.612-.232.198-.437.429-.66.627-.816.693-1.637 1.386-2.427 2.107-.354.316-.664.688-.992 1.027q-.575.685-1.231 1.277c-.14.109-.34-.051-.437-.353a1.4 1.4 0 0 1-.07-.547c.008-.191.067-.377.17-.532A11.1 11.1 0 0 1 12.86 33.4c.607-.471 1.127-1.051 1.694-1.57.568-.518 1.267-1.121 1.904-1.673l1.157-1.027.874-.773c.301-.25.607-.5.9-.76.436-.405.873-.852 1.31-1.262.1-.09.183-.189.296-.274.14-.125.304-.214.48-.259a.36.36 0 0 1 .19.003.4.4 0 0 1 .164.1q.071.056.127.128a.38.38 0 0 1 .026.302 1 1 0 0 1-.179.377 36 36 0 0 1-2.205 2.507 10 10 0 0 1-.9.853l-.943.83z"></path><path d="m19.222 28.159-2.2 2.08c-.266.256-.494.55-.76.801-.95.88-1.912 1.76-2.849 2.666q-.618.605-1.169 1.272c-.507.537-.91 1.17-1.65 1.491-.223.11-.39-.119-.485-.497a3 3 0 0 1-.1-.642 1.6 1.6 0 0 1 0-.356.9.9 0 0 1 .143-.282q.341-.444.696-.88c.236-.29.515-.541.782-.81q.808-.795 1.693-1.5 1.049-.936 1.98-1.993l2.15-2.151 1.331-1.32c.662-.682 1.362-1.32 1.994-2.028.494-.546.902-1.153 1.358-1.725.103-.127.189-.264.3-.382.43-.44.64-.497 1.045-.242.094.061.193.114.279.18a.743.743 0 0 1 .09.994 19.4 19.4 0 0 1-2.462 3.177c-.679.756-1.414 1.46-2.148 2.2z"></path><path d="M18.187 27.141a218 218 0 0 1-2.28 2.573c-.277.314-.513.663-.814.972-.985 1.096-1.975 2.188-2.923 3.32-.407.51-.815 1.03-1.222 1.544-.447.667-.96 1.378-1.465 1.933-.155.17-.346.08-.436-.25-.1-.455-.04-.934.167-1.343.407-.783.867-1.54 1.348-2.269.48-.73 1.074-1.342 1.66-1.978.721-.734 1.291-1.656 1.943-2.488.72-.895 1.449-1.79 2.206-2.685l1.376-1.634c.692-.832 1.405-1.651 2.036-2.51.509-.667.956-1.343 1.445-2.041q.146-.245.338-.448c.488-.474.729-.541 1.058-.411q.114.037.22.094c.216.125.2.501 0 .998l-.22.56a6 6 0 0 1-.268.514c-.188.335-.407.671-.59 1.002q-.6 1.012-1.336 1.911c-.716.895-1.474 1.79-2.206 2.685zM984.351 569.192a504 504 0 0 0 3.097-3.357c.376-.404.713-.856 1.089-1.264l3.984-4.314c.59-.647 1.15-1.324 1.7-1.994.35-.434.69-.877 1.05-1.303l.27-.32.31-.285c.2-.189.4-.373.64-.548.24-.174.4-.007.4.405a3.2 3.2 0 0 1-.22 1.163l-.09.223c-.05.067-.09.131-.14.192-1.42 1.762-2.88 3.501-4.47 5.134-.95.979-1.82 2.118-2.754 3.166-1.017 1.153-2.065 2.293-3.085 3.433l-1.911 2.098c-.966 1.063-1.955 2.108-2.89 3.177l-1.084 1.251q-.531.607-1.094 1.213c-.165.178-.314.36-.487.534-.66.626-.934.753-1.289.624a1 1 0 0 1-.237-.091c-.22-.136-.101-.559.295-1.089l.878-1.146.917-1.221.469-.585a9 9 0 0 1 .505-.579l1.024-1.14 3.092-3.404z"></path><path d="M983.258 570.983a268 268 0 0 0 3.169-3.779c.378-.463.725-.958 1.107-1.417 1.352-1.627 2.716-3.241 4.046-4.886.59-.727 1.16-1.489 1.7-2.248.36-.481.68-.991 1.06-1.462q.57-.707 1.2-1.34c.27-.261.44-.037.47.414.02.614-.13 1.222-.44 1.737q-.24.4-.51.765l-.55.741q-.54.74-1.11 1.465c-.76.966-1.53 1.918-2.35 2.842-.97 1.12-1.839 2.38-2.764 3.576-1.019 1.313-2.055 2.608-3.09 3.908l-1.916 2.389c-.968 1.207-1.964 2.396-2.909 3.617-.725.954-1.369 1.951-2.064 2.937-.154.214-.289.42-.459.633-.627.751-.917.902-1.347.762a2 2 0 0 1-.289-.099c-.282-.16-.219-.659.141-1.292a50.5 50.5 0 0 1 3.769-5.387c1.016-1.305 2.036-2.618 3.09-3.895z"></path><path d="M982.715 571.246c1.177-1.465 2.359-2.929 3.52-4.404.422-.54.79-1.122 1.221-1.679l2.274-2.825c.77-.928 1.55-1.856 2.3-2.798.67-.837 1.27-1.725 1.9-2.598.39-.568.76-1.15 1.16-1.709q.645-.81 1.38-1.516c.31-.29.53-.046.63.492.12.729.03 1.481-.25 2.156a56 56 0 0 1-4.94 6.846c-1.11 1.251-2.067 2.756-3.105 4.131-1.15 1.51-2.321 3.005-3.483 4.501l-2.151 2.765c-1.062 1.414-2.223 2.758-3.262 4.19-.825 1.086-1.513 2.265-2.335 3.364-.178.239-.348.487-.542.717-.757.777-1.161.945-1.573.814a1.3 1.3 0 0 1-.282-.077c-.26-.138-.148-.657.194-1.396 1.039-2.251 2.482-4.341 3.909-6.463 1.045-1.587 2.243-3.056 3.389-4.569zM984.101 555.072c.591-.458 1.21-.924 1.805-1.386.219-.171.415-.372.626-.543.772-.596 1.549-1.192 2.298-1.815.335-.272.632-.598.944-.893q.548-.598 1.176-1.11c.13-.093.31.061.38.339.05.161.07.331.05.499a.9.9 0 0 1-.18.477c-.72.933-1.58 1.726-2.551 2.344-.572.404-1.068.909-1.607 1.357s-1.199.967-1.802 1.442l-1.096.887-.827.666c-.285.215-.574.429-.851.653-.414.35-.83.739-1.244 1.094-.095.077-.175.164-.282.236a1 1 0 0 1-.449.216.344.344 0 0 1-.32-.109.6.6 0 0 1-.112-.12.35.35 0 0 1-.013-.275.9.9 0 0 1 .177-.336c.637-.73 1.36-1.479 2.108-2.187q.407-.397.854-.739l.893-.715z"></path><path d="m981.702 557.27 2.122-1.989c.257-.244.48-.529.737-.768.915-.84 1.842-1.68 2.746-2.547q.597-.578 1.134-1.222c.491-.515.89-1.132 1.59-1.422.21-.101.36.135.43.517.04.211.07.428.07.645 0 .119 0 .239-.02.356a.9.9 0 0 1-.14.276q-.332.429-.68.85c-.23.281-.499.52-.757.777q-.78.761-1.629 1.429a23 23 0 0 0-1.915 1.91l-2.076 2.061-1.287 1.264c-.641.654-1.315 1.262-1.929 1.944-.479.525-.881 1.114-1.326 1.667-.101.123-.186.256-.294.37-.416.422-.613.47-.978.199-.085-.066-.175-.122-.252-.192a.783.783 0 0 1-.045-.997 19 19 0 0 1 2.407-3.072c.659-.728 1.368-1.401 2.078-2.11z"></path><path d="M982.106 558.718c.779-.779 1.575-1.549 2.371-2.319.288-.282.537-.6.849-.877 1.025-.987 2.053-1.97 3.042-2.993.425-.461.851-.931 1.276-1.397.477-.607 1.007-1.254 1.537-1.753.16-.153.35-.061.42.255.09.432.01.88-.21 1.255a24 24 0 0 1-1.431 2.074c-.506.664-1.122 1.215-1.731 1.786-.747.658-1.35 1.5-2.031 2.254-.753.81-1.514 1.619-2.303 2.427l-1.434 1.475c-.722.752-1.464 1.491-2.126 2.271-.532.604-1.004 1.22-1.518 1.854a2.4 2.4 0 0 1-.354.406c-.505.425-.748.477-1.073.34a1.4 1.4 0 0 1-.216-.098c-.211-.127-.181-.48.037-.938l.24-.516q.13-.245.287-.472c.199-.308.431-.614.626-.917q.637-.925 1.404-1.738c.749-.81 1.538-1.618 2.303-2.427zM13.934 564.261a500 500 0 0 0 3.262 3.174c.392.385.828.727 1.224 1.112l4.192 4.088c.628.6 1.283 1.171 1.93 1.728.42.356.848.706 1.26 1.07l.31.279.28.313c.184.211.364.422.537.668.172.245.023.422-.361.448a2.8 2.8 0 0 1-1.095-.195l-.212-.089a2 2 0 0 1-.185-.139c-1.703-1.441-3.387-2.929-4.976-4.569-.954-.977-2.053-1.86-3.07-2.811-1.118-1.04-2.224-2.114-3.331-3.158l-2.037-1.957c-1.032-.989-2.049-2.004-3.085-2.959l-1.212-1.107a58 58 0 0 1-1.178-1.121c-.173-.169-.35-.321-.518-.498-.612-.681-.742-.968-.636-1.353q.023-.134.075-.258c.118-.241.518-.131 1.028.271l1.107.892 1.177.93.565.477c.193.165.393.343.562.516l1.106 1.048 3.305 3.166z"></path><path d="M12.256 564.105a276 276 0 0 0 3.658 3.232c.448.385.925.736 1.369 1.125 1.574 1.38 3.137 2.771 4.728 4.13.702.6 1.437 1.171 2.168 1.726.464.359.953.681 1.409 1.07q.683.575 1.3 1.227c.254.275.052.47-.368.516a2.65 2.65 0 0 1-1.639-.393 7 7 0 0 1-.735-.521l-.714-.554a60 60 0 0 1-1.413-1.13 58 58 0 0 1-2.75-2.39c-1.086-.994-2.297-1.87-3.452-2.809-1.267-1.037-2.52-2.09-3.775-3.144l-2.31-1.95c-1.166-.986-2.317-2.001-3.496-2.961-.92-.737-1.877-1.384-2.826-2.086-.206-.157-.404-.292-.61-.466-.726-.638-.88-.943-.766-1.408q.03-.16.08-.314c.138-.308.606-.262 1.211.098a47 47 0 0 1 5.184 3.807c1.26 1.033 2.528 2.069 3.763 3.144z"></path><path d="M11.945 563.446c1.416 1.199 2.832 2.401 4.256 3.582.522.43 1.08.799 1.618 1.237l2.73 2.315c.899.786 1.797 1.577 2.707 2.346.809.682 1.662 1.288 2.504 1.924.546.395 1.104.764 1.642 1.168q.782.652 1.473 1.413c.283.322.064.571-.433.696a3.24 3.24 0 0 1-2.023-.181 53 53 0 0 1-6.594-4.995c-1.213-1.134-2.657-2.1-3.984-3.152-1.457-1.168-2.9-2.358-4.345-3.539l-2.67-2.187c-1.363-1.078-2.666-2.263-4.045-3.315-1.048-.838-2.176-1.525-3.236-2.358-.23-.181-.47-.352-.692-.55-.756-.777-.93-1.203-.825-1.649q.015-.156.06-.305c.118-.284.607-.185 1.311.15 2.144 1.018 4.155 2.474 6.194 3.913 1.525 1.052 2.944 2.272 4.405 3.436zM27.324 564.205c.452.612.912 1.255 1.369 1.872.168.227.364.429.532.647.588.802 1.177 1.607 1.79 2.383.267.347.583.651.872.973q.58.564 1.084 1.208c.092.137-.044.334-.3.429a1.05 1.05 0 0 1-.464.068.8.8 0 0 1-.453-.167 10.3 10.3 0 0 1-2.293-2.635c-.4-.596-.892-1.106-1.333-1.663s-.952-1.243-1.42-1.868l-.873-1.136-.656-.857c-.212-.296-.425-.596-.645-.883-.344-.428-.724-.857-1.072-1.285-.076-.099-.16-.18-.232-.292a1.2 1.2 0 0 1-.22-.471.4.4 0 0 1 .002-.186.4.4 0 0 1 .085-.161.6.6 0 0 1 .108-.125.3.3 0 0 1 .257-.025.8.8 0 0 1 .32.175 32 32 0 0 1 2.13 2.165q.386.418.724.882l.704.926z"></path><path d="m25.212 562.62 1.943 2.188c.239.264.514.491.748.756.822.944 1.644 1.9 2.49 2.832q.565.614 1.188 1.162c.501.504 1.093.905 1.393 1.64.103.222-.11.389-.464.483a2.7 2.7 0 0 1-.6.098q-.166.02-.333 0a.8.8 0 0 1-.263-.141q-.413-.34-.822-.692c-.271-.235-.505-.513-.756-.778a21 21 0 0 1-1.401-1.683 23 23 0 0 0-1.862-1.969l-2.01-2.136-1.232-1.324c-.637-.658-1.233-1.354-1.895-1.982-.51-.491-1.076-.897-1.61-1.35-.12-.102-.247-.188-.358-.299-.411-.427-.464-.636-.226-1.038.057-.094.107-.192.168-.277a.664.664 0 0 1 .929-.09 18.3 18.3 0 0 1 2.967 2.448c.707.675 1.364 1.405 2.055 2.135z"></path><path d="M23.834 561.953c.76.802 1.51 1.622 2.262 2.441.275.296.582.549.854.872.964 1.054 1.924 2.114 2.919 3.129.448.436.905.872 1.357 1.308.587.479 1.212 1.028 1.7 1.569.15.165.07.37-.22.466-.4.107-.821.043-1.18-.179a22 22 0 0 1-1.995-1.442c-.642-.515-1.18-1.151-1.74-1.779-.645-.771-1.455-1.381-2.187-2.079a132 132 0 0 1-2.36-2.362l-1.436-1.473c-.732-.741-1.452-1.504-2.207-2.179-.587-.545-1.18-1.024-1.794-1.547a2.4 2.4 0 0 1-.394-.362c-.417-.523-.476-.78-.362-1.133q.033-.122.083-.236c.11-.231.44-.213.877 0l.492.236q.233.13.452.287c.295.201.59.436.882.632q.89.643 1.68 1.43c.786.767 1.573 1.578 2.36 2.362zM979.066 25.825a513 513 0 0 0-3.262-3.175c-.392-.385-.828-.727-1.224-1.112l-4.192-4.087c-.628-.6-1.283-1.171-1.931-1.729-.42-.355-.847-.706-1.259-1.07l-.31-.278-.279-.313a8 8 0 0 1-.538-.668c-.172-.245-.023-.423.361-.448a2.8 2.8 0 0 1 1.095.194l.212.089q.096.063.185.14c1.703 1.44 3.387 2.929 4.976 4.569.954.976 2.053 1.86 3.069 2.81 1.119 1.04 2.225 2.114 3.332 3.158l2.037 1.957c1.032.99 2.049 2.004 3.085 2.96l1.212 1.107a58 58 0 0 1 1.178 1.12c.172.17.349.321.518.499.612.68.742.968.636 1.353a1.3 1.3 0 0 1-.075.257c-.118.241-.518.131-1.028-.27l-1.107-.892-1.177-.93-.565-.478a9 9 0 0 1-.562-.515l-1.106-1.049-3.305-3.166z"></path><path d="M980.744 25.98a277 277 0 0 0-3.658-3.232c-.448-.385-.925-.736-1.369-1.125-1.574-1.38-3.137-2.771-4.728-4.13a47 47 0 0 0-2.168-1.725c-.464-.36-.953-.681-1.409-1.07a16 16 0 0 1-1.3-1.228c-.254-.275-.052-.47.368-.516a2.65 2.65 0 0 1 1.639.394q.383.235.735.52l.714.554c.477.368.945.745 1.413 1.13a59 59 0 0 1 2.75 2.39c1.086.995 2.297 1.87 3.452 2.81 1.268 1.036 2.519 2.09 3.775 3.143l2.309 1.95c1.167.986 2.318 2.002 3.497 2.962.92.736 1.877 1.383 2.826 2.086.206.156.404.292.61.465.73.639.88.943.77 1.409-.02.106-.05.21-.08.313-.14.309-.61.262-1.215-.097a47 47 0 0 1-5.184-3.808c-1.26-1.032-2.528-2.069-3.763-3.143z"></path><path d="M981.055 26.639c-1.416-1.198-2.832-2.4-4.256-3.582-.522-.43-1.08-.799-1.618-1.237l-2.73-2.315c-.899-.786-1.797-1.576-2.707-2.345-.809-.683-1.662-1.289-2.504-1.924-.546-.395-1.104-.765-1.642-1.168a15 15 0 0 1-1.473-1.414c-.283-.322-.064-.57.433-.695a3.25 3.25 0 0 1 2.023.18 53 53 0 0 1 6.594 4.995c1.213 1.134 2.657 2.1 3.984 3.153 1.456 1.168 2.901 2.358 4.345 3.539l2.67 2.186c1.363 1.078 2.665 2.264 4.045 3.316 1.048.837 2.181 1.524 3.241 2.358.23.18.46.352.69.55.75.777.93 1.202.82 1.649q-.015.156-.06.305c-.12.283-.61.184-1.31-.15-2.143-1.018-4.154-2.474-6.193-3.913-1.525-1.053-2.944-2.272-4.405-3.436zM965.676 25.88c-.452-.612-.912-1.255-1.369-1.872-.168-.227-.364-.428-.532-.647-.588-.801-1.177-1.607-1.789-2.383-.268-.347-.584-.65-.873-.972q-.58-.565-1.084-1.209c-.092-.137.044-.334.3-.428.148-.058.307-.081.464-.069.163.007.32.065.453.167a10.3 10.3 0 0 1 2.293 2.636c.4.595.892 1.105 1.333 1.662.44.558.952 1.243 1.42 1.869l.873 1.135.656.858c.212.295.425.595.645.882.344.429.724.857 1.072 1.286.076.098.16.18.232.291.107.137.183.298.221.472a.397.397 0 0 1-.088.347.7.7 0 0 1-.109.124.29.29 0 0 1-.256.026.8.8 0 0 1-.32-.176 32 32 0 0 1-2.129-2.164 10 10 0 0 1-.725-.883l-.704-.925z"></path><path d="m967.789 27.465-1.944-2.187c-.239-.265-.514-.491-.748-.756-.822-.944-1.644-1.901-2.49-2.832a16 16 0 0 0-1.188-1.162c-.501-.504-1.093-.906-1.393-1.64-.103-.223.111-.39.464-.483a2.6 2.6 0 0 1 .6-.098q.166-.02.333 0 .143.046.263.14.414.34.822.693c.271.235.505.512.756.777q.743.803 1.401 1.683a23 23 0 0 0 1.862 1.97l2.009 2.135 1.233 1.324c.637.658 1.233 1.354 1.895 1.982.509.492 1.076.897 1.611 1.35.119.103.246.188.357.3.411.426.465.636.226 1.037-.057.094-.107.192-.168.278a.664.664 0 0 1-.929.09 18.3 18.3 0 0 1-2.967-2.448c-.707-.675-1.364-1.405-2.055-2.136z"></path><path d="M969.166 28.132a209 209 0 0 1-2.262-2.44c-.275-.297-.582-.55-.854-.872-.964-1.055-1.924-2.114-2.919-3.13-.449-.436-.905-.871-1.357-1.307-.587-.48-1.212-1.029-1.7-1.57-.149-.165-.071-.37.22-.466a1.5 1.5 0 0 1 1.181.18c.688.435 1.353.927 1.994 1.442.642.514 1.181 1.15 1.739 1.778.646.771 1.456 1.382 2.188 2.079.787.771 1.573 1.552 2.36 2.362l1.436 1.474c.732.74 1.452 1.503 2.207 2.179.587.544 1.181 1.024 1.795 1.547q.214.156.393.362c.417.523.476.78.362 1.133q-.032.121-.083.235c-.11.231-.44.214-.877 0l-.492-.235a5 5 0 0 1-.452-.288c-.295-.2-.59-.436-.882-.632a14 14 0 0 1-1.68-1.43c-.786-.766-1.573-1.577-2.36-2.362z"></path></g><defs><clipPath id="latest-patch-note-border_svg__a"><path fill="#fff" d="M0 0h997v584H0z"></path></clipPath></defs></svg>